# xmcd
#
# Track frame offsets:
#	182
#	11725
#	27032
#	38335
#	48277
#	60697
#	72920
#	83857
#	96100
#	108652
#	122090
#	135002
#	145595
#	157365
#	169605
#	186462
#	196450
#	207600
#
# Disc length: 2946 seconds
#
# Revision: 2
# Processed by: cddbd v1.4PL0 Copyright (c) Steve Scherf et al.
# Submitted via: MusicWizard 6.0.2
#
DISCID=f90b8012
DTITLE=John Lee Hooker - The Best Of John Lee Hooker
DYEAR=1991
DGENRE=Blues
TTITLE0=Boogie Chillun
TTITLE1=Tupelo
TTITLE2=Boom Boom
TTITLE3=Dimples
TTITLE4=Drug Store Woman
TTITLE5=Frisco Blues
TTITLE6=No Shoes
TTITLE7=I'm In The Mood
TTITLE8=Hobo Blues
TTITLE9=Baby Lee
TTITLE10=Trouble Blues
TTITLE11=Old Time Shimmy
TTITLE12=Little Wheel
TTITLE13=Whiskey And Wimmen
TTITLE14=Process
TTITLE15=Dusty Road
TTITLE16=Good Rockin' Mama
TTITLE17=I'm Goin' Upstairs
EXTD=
EXTT0=
EXTT1=
EXTT2=
EXTT3=
EXTT4=
EXTT5=
EXTT6=
EXTT7=
EXTT8=
EXTT9=
EXTT10=
EXTT11=
EXTT12=
EXTT13=
EXTT14=
EXTT15=
EXTT16=
EXTT17=
PLAYORDER=
